<?xml version="1.0" encoding="utf-8"?>
<!-- Generator: Adobe Illustrator 25.1.0, SVG Export Plug-In . SVG Version: 6.00 Build 0)  -->
<svg version="1.1" id="Layer_1" xmlns="http://www.w3.org/2000/svg" xmlns:xlink="http://www.w3.org/1999/xlink" x="0px" y="0px"
	 viewBox="0 0 1297.7 320" style="enable-background:new 0 0 1297.7 320;" xml:space="preserve">
<style type="text/css">
	.st0{fill:#1D4D57;}
	.st1{font-family:'Nunito-Light';}
	.st2{font-size:224px;}
</style>
<path class="st0" d="M37.7,84.7c0-9.4-0.1-18.8,0-28.2c0.1-10.7,7.6-18.6,18.2-18.8c19.1-0.2,38.3-0.2,57.4,0
	c10.9,0.1,18.4,8.1,18.5,19c0.1,18.7,0.1,37.3,0,56c0,11.1-7.7,19-18.9,19c-18.7,0.1-37.3,0.1-56,0c-11.5-0.1-19.1-7.9-19.2-19.3
	C37.6,103.2,37.7,94,37.7,84.7z M112.8,56.8c-19,0-37.5,0-56,0c0,18.8,0,37.2,0,55.8c18.8,0,37.3,0,56,0
	C112.8,94,112.8,75.5,112.8,56.8z"/>
<path class="st0" d="M188.2,84.2c0-9.2-0.1-18.5,0-27.7c0.1-10.6,7.6-18.6,18.2-18.8c19.1-0.2,38.3-0.2,57.4,0
	c10.9,0.1,18.4,8.1,18.5,19c0.1,18.7,0.1,37.3,0,56c0,11.1-7.7,19-18.9,19c-18.7,0.1-37.3,0.1-56,0c-11.5-0.1-19.1-7.9-19.2-19.3
	C188.2,103.1,188.2,93.6,188.2,84.2z M207.2,112.6c18.9,0,37.5,0,55.9,0c0-18.9,0-37.4,0-55.9c-18.8,0-37.2,0-55.9,0
	C207.2,75.4,207.2,93.9,207.2,112.6z"/>
<path class="st0" d="M37.7,235c0-9.2,0-18.5,0-27.7c0.1-10.9,7.6-18.8,18.5-18.9c19-0.2,37.9-0.2,56.9,0c10.9,0.1,18.6,8,18.6,18.9
	c0.1,18.8,0.1,37.6,0,56.4c0,10.6-7.6,18.6-18.3,18.7c-19.1,0.2-38.3,0.2-57.4,0c-10.9-0.1-18.3-8.1-18.4-19.1
	C37.6,253.8,37.7,244.4,37.7,235z M112.7,207.4c-18.9,0-37.5,0-55.9,0c0,18.9,0,37.4,0,55.9c18.8,0,37.2,0,55.9,0
	C112.7,244.6,112.7,226.2,112.7,207.4z"/>
<path class="st0" d="M207,235c0-3,0-6,0-8.9c0.1-10.9,7.6-18.7,18.5-19c6.6-0.2,13.2-0.2,19.7,0c10.7,0.4,18.1,8.2,18.2,18.8
	c0.1,6.3,0.1,12.5,0,18.8c-0.1,10.4-7.4,18.2-17.8,18.7c-6.9,0.3-13.8,0.3-20.7,0c-10.4-0.4-17.8-8.2-17.9-18.6
	C207,241.6,207,238.3,207,235z M226,244.4c6.4,0,12.4,0,18.4,0c0-6.3,0-12.3,0-18.1c-6.3,0-12.3,0-18.4,0
	C226,232.4,226,238.2,226,244.4z"/>
<path class="st0" d="M18.8,18.8c0,9.1,0,17.7,0,26.2c0,7-3.9,11.6-9.6,11.4C3.6,56.3,0,51.9,0,45.1c0-11.3,0-22.6,0-33.9
	C0,3.6,3.6,0,11.3,0c11.4,0,22.9,0,34.3,0C52,0,56.3,3.8,56.4,9.3c0.1,5.6-4.3,9.5-11,9.5C36.8,18.9,28.2,18.8,18.8,18.8z"/>
<path class="st0" d="M301.1,18.8c-9.3,0-17.9,0-26.6,0c-6.7,0-11.1-3.9-11.1-9.5C263.6,3.7,268,0,274.8,0c11.4,0,22.9,0,34.3,0
	c7.1,0,10.8,3.6,10.8,10.6c0.1,11.8,0.1,23.5,0,35.3c0,6.3-4.1,10.6-9.6,10.5c-5.3-0.1-9.2-4.4-9.2-10.4
	C301.1,37.2,301.1,28.3,301.1,18.8z"/>
<path class="st0" d="M18.8,301.2c9.1,0,17.7,0,26.3,0c6.9,0,11.2,3.6,11.4,9.2c0.1,5.8-4.4,9.6-11.4,9.6c-11.3,0-22.6,0-33.9,0
	C3.5,320,0,316.4,0,308.7c0-11.3,0-22.6,0-33.9c0-6.8,3.6-11.2,9.3-11.3c5.6-0.1,9.5,4.3,9.5,11C18.9,283.2,18.8,291.8,18.8,301.2z"
	/>
<path class="st0" d="M301.1,301.2c0-9.1,0-17.7,0-26.3c0-6.9,3.6-11.2,9.2-11.4c5.8-0.1,9.6,4.4,9.6,11.4c0,11.3,0,22.6,0,33.9
	c0,7.6-3.6,11.1-11.3,11.1c-11.3,0-22.6,0-33.9,0c-6.8,0-11.2-3.7-11.3-9.3c-0.1-5.6,4.4-9.5,11.1-9.5
	C283.2,301.1,291.8,301.2,301.1,301.2z"/>
<path class="st0" d="M169.4,150.6c3.5,0,6.4-0.1,9.3,0c5.4,0.2,9.3,4.2,9.5,9.2c0.1,5.2-3.9,9.3-9.5,9.6c-2.9,0.1-5.9,0-9.3,0
	c0,3.4,0.1,6.3,0,9.2c-0.2,5.6-4.3,9.7-9.5,9.6c-5-0.1-9-4-9.2-9.4c-0.1-2.9,0-5.9,0-9.4c-3.3,0-6.2,0.1-9.1,0
	c-5.6-0.2-9.7-4.2-9.7-9.4s4.1-9.2,9.8-9.4c2.8-0.1,5.6,0,9.1,0c0-3.2-0.1-6.1,0-9c0.2-5.7,4.1-9.8,9.3-9.8c5.2-0.1,9.2,4,9.5,9.6
	C169.5,144.2,169.4,147.1,169.4,150.6z"/>
<path class="st0" d="M169.4,94.1c0,3.1,0.1,6.3,0,9.4c-0.2,5.3-4.2,9.3-9.2,9.4c-5.2,0.1-9.4-3.9-9.6-9.5c-0.2-6.2-0.2-12.5,0-18.7
	c0.1-5.3,4.2-9.3,9.1-9.4c5.2-0.1,9.3,3.9,9.6,9.5C169.5,87.9,169.4,91,169.4,94.1z"/>
<path class="st0" d="M93.8,169.4c-3,0-5.9,0.1-8.9,0c-5.6-0.2-9.6-4.3-9.6-9.5c0.1-5,4-9.1,9.3-9.3c6.4-0.2,12.8-0.2,19.2,0
	c5.3,0.2,9.2,4.4,9.1,9.4s-4,9-9.3,9.3C100.4,169.5,97.1,169.4,93.8,169.4z"/>
<path class="st0" d="M226.2,150.6c3.1,0,6.3-0.2,9.4,0c5.3,0.3,9.1,4.5,9.1,9.5c-0.1,4.8-3.8,9-8.9,9.2c-6.6,0.3-13.1,0.2-19.7,0
	c-5.3-0.2-9.1-4.5-9.1-9.5c0.1-5,4-9,9.3-9.2C219.7,150.5,223,150.6,226.2,150.6z"/>
<path class="st0" d="M169.4,226.1c0,3.1,0.1,6.3,0,9.4c-0.3,5.3-4.3,9.2-9.3,9.2s-9.2-3.9-9.4-9.2c-0.2-6.4-0.2-12.8,0-19.2
	c0.2-5.3,4.3-9.2,9.3-9.2s9.1,3.9,9.4,9.2C169.5,219.5,169.4,222.8,169.4,226.1z"/>
<path class="st0" d="M169.4,47.1c0,5.2-4.6,9.5-9.7,9.3c-5-0.2-9.1-4.5-9.1-9.5c0-5.2,4.6-9.5,9.7-9.3
	C165.3,37.8,169.4,42.2,169.4,47.1z"/>
<path class="st0" d="M56.5,160.4c-0.2,5.2-4.9,9.4-10,9c-5-0.3-9-4.8-8.8-9.8c0.2-5.2,4.9-9.4,10-9C52.7,151,56.7,155.4,56.5,160.4z
	"/>
<path class="st0" d="M272.9,169.4c-5.2,0-9.5-4.5-9.4-9.6c0.1-5,4.4-9.2,9.4-9.1c5.2,0,9.5,4.5,9.4,9.6
	C282.2,165.2,277.9,169.4,272.9,169.4z"/>
<path class="st0" d="M169.4,272.9c0,5.2-4.4,9.6-9.6,9.5c-5-0.1-9.2-4.4-9.2-9.3c0-5.2,4.4-9.6,9.6-9.5
	C165.2,263.6,169.4,267.9,169.4,272.9z"/>
<path class="st0" d="M84.5,94.1c-5.2-0.1-9.4-4.7-9.2-9.8c0.2-5,4.6-9.1,9.6-9s9.2,4.4,9.2,9.4C94.1,89.8,89.7,94.2,84.5,94.1z"/>
<path class="st0" d="M244.7,84.9c-0.1,5.2-4.7,9.4-9.9,9.2c-5-0.3-9.1-4.7-8.9-9.6c0.1-5.2,4.7-9.4,9.9-9.2
	C240.7,75.6,244.8,80,244.7,84.9z"/>
<path class="st0" d="M94.1,235.1c0.1,5.2-4.3,9.6-9.4,9.6c-5,0-9.2-4.2-9.4-9.2c-0.1-5.1,4.3-9.6,9.4-9.6
	C89.7,225.9,94,230.1,94.1,235.1z"/>
<text transform="matrix(1 0 0 1 408.917 225.9002)" class="st0 st1 st2">barcoder</text>
</svg>
